<svg xmlns="http://www.w3.org/2000/svg" width="379.631" height="328.473" viewBox="0 0 379.631 328.473"><path fill="#B0BEC5" d="M98.445 269.949h281.186v58.524H98.445z"/><path fill="#607D8B" d="M98.445 0H379.63v59.429H98.445z"/><path fill="#78909C" d="M98.445 52.792H379.63V191.26H98.445z"/><path fill="#90A4AE" d="M98.445 191.221h281.186v79.642H98.445z"/><text transform="translate(107.503 72.505)"><tspan x="0" y="0" fill="#231F20" font-family="'Lato-Regular'" font-size="14.48">Screen type (CRISPR, microscopy)</tspan><tspan x="0" y="26.427" fill="#231F20" font-family="'Lato-Regular'" font-size="14.48">Species</tspan><tspan x="0" y="52.853" fill="#231F20" font-family="'Lato-Regular'" font-size="14.48">Cell Line</tspan><tspan x="0" y="79.28" fill="#231F20" font-family="'Lato-Regular'" font-size="14.48">Conditions (genetric perturbations, drugs)</tspan><tspan x="0" y="105.706" fill="#231F20" font-family="'Lato-Regular'" font-size="14.48">Screen type specific fields</tspan></text><text transform="translate(107.503 207.653)"><tspan x="0" y="0" fill="#231F20" font-family="'Lato-Regular'" font-size="14.48">T</tspan><tspan x="8.435" y="0" fill="#231F20" font-family="'Lato-Regular'" font-size="14.48">ime point definition</tspan><tspan x="0" y="26.427" fill="#231F20" font-family="'Lato-Regular'" font-size="14.48">Drug concentrations</tspan><tspan x="0" y="52.853" fill="#231F20" font-family="'Lato-Regular'" font-size="14.48" letter-spacing="-1">T</tspan><tspan x="7.233" y="52.853" fill="#231F20" font-family="'Lato-Regular'" font-size="14.48">ext-based protocols</tspan></text><text transform="translate(107.503 18.399)"><tspan x="0" y="0" fill="#231F20" font-family="'Lato-Regular'" font-size="14.48">Description</tspan><tspan x="0" y="26.427" fill="#231F20" font-family="'Lato-Regular'" font-size="14.48">User permissions</tspan></text><text transform="translate(17.57 18.099)" font-family="'Lato-Black'" font-size="18.1">Project</text><text transform="translate(19.425 71.602)" font-family="'Lato-Black'" font-size="18.1">Screen</text><text transform="translate(-.064 207.818)" font-family="'Lato-Black'" font-size="18.1">Experiment</text><text transform="translate(17.375 294.694)" font-family="'Lato-Black'" font-size="18.1">Sample</text><text transform="translate(107.503 291.072)"><tspan x="0" y="0" font-family="'Lato-Regular'" font-size="14.48">Replicate information</tspan><tspan x="0" y="26.427" font-family="'Lato-Regular'" font-size="14.48">Sample type specific fields</tspan></text><path fill="none" stroke="#4F4C4D" stroke-width="2" stroke-miterlimit="10" d="M47.208 26.091v15.323"/><path fill="#4F4C4D" d="M47.208 53.484c-2.107-5.68-5.703-12.727-9.512-17.095l9.512 3.44 9.51-3.44c-3.808 4.369-7.404 11.416-9.51 17.095z"/><path fill="none" stroke="#4F4C4D" stroke-width="2" stroke-miterlimit="10" d="M47.208 79.527v97.856"/><path fill="#4F4C4D" d="M47.208 189.454c-2.107-5.68-5.703-12.727-9.512-17.095l9.512 3.44 9.51-3.44c-3.808 4.368-7.404 11.415-9.51 17.095z"/><path fill="none" stroke="#4F4C4D" stroke-width="2" stroke-miterlimit="10" d="M47.208 217.831v43.668"/><path fill="#4F4C4D" d="M47.208 273.569c-2.107-5.68-5.703-12.727-9.512-17.095l9.512 3.44 9.51-3.44c-3.808 4.369-7.404 11.416-9.51 17.095z"/></svg>