<svg xmlns="http://www.w3.org/2000/svg" width="50" height="50" viewBox="0 0 50 50"><circle fill="#EDEFF2" cx="25" cy="25" r="25"/><path fill="#607D8B" d="M28 25c0 1.7-1.3 3-3 3s-3-1.3-3-3 1.3-3 3-3 3 1.3 3 3z"/><path fill="#263238" d="M33 30c0 1.7-1.3 3-3 3s-3-1.3-3-3 1.3-3 3-3 3 1.3 3 3z"/><path fill="#455A64" d="M23 40c0 1.7-1.3 3-3 3s-3-1.3-3-3 1.3-3 3-3 3 1.3 3 3z"/><path fill="#90A4AE" d="M28 35c0 1.7-1.3 3-3 3s-3-1.3-3-3 1.3-3 3-3 3 1.3 3 3z"/><path fill="#263238" d="M38 25c0 1.7-1.3 3-3 3s-3-1.3-3-3 1.3-3 3-3 3 1.3 3 3z"/><path fill="#90A4AE" d="M43 20c0 1.7-1.3 3-3 3s-3-1.3-3-3 1.3-3 3-3 3 1.3 3 3zm-20 0c0 1.7-1.3 3-3 3s-3-1.3-3-3 1.3-3 3-3 3 1.3 3 3z"/><path fill="#607D8B" d="M13 30c0 1.7-1.3 3-3 3s-3-1.3-3-3 1.3-3 3-3 3 1.3 3 3z"/><path fill="#455A64" d="M18 25c0 1.7-1.3 3-3 3s-3-1.3-3-3 1.3-3 3-3 3 1.3 3 3z"/><path fill="#607D8B" d="M33 10c0 1.7-1.3 3-3 3s-3-1.3-3-3 1.3-3 3-3 3 1.3 3 3z"/><circle fill="#263238" cx="35.5" cy="7" r="2.5"/><circle fill="#455A64" cx="40.5" cy="9" r="2"/><path fill="#607D8B" d="M28 15c0 1.7-1.3 3-3 3s-3-1.3-3-3 1.3-3 3-3 3 1.3 3 3z"/><circle fill="#263238" cx="43.5" cy="12" r="1.5"/><circle fill="#607D8B" cx="45.5" cy="15" r="1.2"/><circle fill="#90A4AE" cx="47" cy="17.5" r="1"/><circle fill="#90A4AE" cx="14.5" cy="43" r="2.5"/><circle fill="#607D8B" cx="9.5" cy="41" r="2"/><circle fill="#90A4AE" cx="6.5" cy="38" r="1.5"/><circle fill="#455A64" cx="4.5" cy="35" r="1.2"/><circle fill="#263238" cx="3" cy="32.5" r="1"/></svg>