<svg xmlns="http://www.w3.org/2000/svg" width="374.46" height="75.898" viewBox="0 0 374.46 75.898"><circle fill="#607D8B" cx="37.5" cy="37.5" r="37.5"/><path fill="#F5F5F5" d="M42 37.5c0 2.486-2.012 4.5-4.495 4.5C35.02 42 33 39.986 33 37.5s2.02-4.5 4.505-4.5A4.497 4.497 0 0 1 42 37.5z"/><path fill="#263238" d="M49.5 45c0 2.486-2.012 4.5-4.494 4.5-2.486 0-4.506-2.014-4.506-4.5s2.02-4.5 4.506-4.5A4.497 4.497 0 0 1 49.5 45z"/><path fill="#455A64" d="M34.5 60c0 2.486-2.011 4.5-4.495 4.5-2.485 0-4.505-2.014-4.505-4.5s2.02-4.5 4.505-4.5A4.496 4.496 0 0 1 34.5 60z"/><path fill="#90A4AE" d="M42 52.5c0 2.486-2.012 4.5-4.495 4.5C35.02 57 33 54.986 33 52.5s2.02-4.5 4.505-4.5A4.497 4.497 0 0 1 42 52.5z"/><path fill="#263238" d="M57 37.5c0 2.486-2.012 4.5-4.494 4.5C50.02 42 48 39.986 48 37.5s2.02-4.5 4.506-4.5A4.497 4.497 0 0 1 57 37.5z"/><path fill="#90A4AE" d="M64.5 30c0 2.485-2.012 4.5-4.494 4.5A4.505 4.505 0 0 1 55.5 30c0-2.486 2.02-4.5 4.506-4.5A4.497 4.497 0 0 1 64.5 30zm-30 0c0 2.485-2.011 4.5-4.495 4.5A4.505 4.505 0 0 1 25.5 30c0-2.486 2.02-4.5 4.505-4.5A4.496 4.496 0 0 1 34.5 30z"/><path fill="#F5F5F5" d="M19.5 45c0 2.486-2.011 4.5-4.495 4.5-2.485 0-4.505-2.014-4.505-4.5s2.02-4.5 4.505-4.5A4.496 4.496 0 0 1 19.5 45z"/><path fill="#455A64" d="M27 37.5c0 2.486-2.011 4.5-4.495 4.5C20.02 42 18 39.986 18 37.5s2.02-4.5 4.505-4.5A4.496 4.496 0 0 1 27 37.5z"/><path fill="#F5F5F5" d="M49.5 15c0 2.485-2.012 4.5-4.494 4.5A4.505 4.505 0 0 1 40.5 15c0-2.486 2.02-4.5 4.506-4.5A4.497 4.497 0 0 1 49.5 15z"/><path fill="#263238" d="M57 10.5c0 2.071-1.676 3.75-3.746 3.75S49.5 12.571 49.5 10.5s1.684-3.75 3.754-3.75S57 8.429 57 10.5z"/><circle fill="#455A64" cx="60.75" cy="13.5" r="3"/><path fill="#455A64" d="M42 22.5c0 2.485-2.012 4.5-4.495 4.5A4.505 4.505 0 0 1 33 22.5c0-2.486 2.02-4.5 4.505-4.5A4.497 4.497 0 0 1 42 22.5z"/><circle fill="#263238" cx="65.25" cy="18" r="2.25"/><circle fill="#F5F5F5" cx="68.25" cy="22.5" r="1.875"/><circle fill="#90A4AE" cx="70.5" cy="26.25" r="1.5"/><path fill="#90A4AE" d="M18 64.5a3.747 3.747 0 0 1 3.746-3.75c2.071 0 3.754 1.679 3.754 3.75s-1.683 3.75-3.754 3.75A3.747 3.747 0 0 1 18 64.5z"/><path fill="#F5F5F5" d="M11.25 61.5c0-1.656 1.34-3 2.996-3 1.658 0 3.004 1.344 3.004 3s-1.346 3-3.004 3a2.998 2.998 0 0 1-2.996-3z"/><circle fill="#90A4AE" cx="9.75" cy="57" r="2.25"/><circle fill="#455A64" cx="6.75" cy="52.5" r="1.875"/><circle fill="#263238" cx="4.5" cy="48.75" r="1.5"/><path d="M112.111 23.307c-.239.42-.495.726-.765.915-.271.19-.605.285-1.005.285-.42 0-.875-.155-1.365-.465s-1.075-.655-1.755-1.035a14.528 14.528 0 0 0-2.385-1.035c-.91-.31-1.985-.465-3.226-.465-1.12 0-2.1.135-2.939.405-.84.27-1.545.645-2.115 1.125a4.496 4.496 0 0 0-1.275 1.725c-.28.67-.42 1.405-.42 2.205 0 1.02.285 1.871.855 2.55.57.68 1.324 1.26 2.265 1.74s2.01.91 3.21 1.29c1.2.38 2.431.785 3.69 1.215 1.26.431 2.49.93 3.689 1.5 1.2.57 2.271 1.29 3.21 2.161.94.87 1.695 1.935 2.266 3.194.569 1.261.854 2.79.854 4.591 0 1.96-.335 3.795-1.005 5.505s-1.649 3.2-2.939 4.47c-1.29 1.271-2.865 2.271-4.726 3-1.859.73-3.99 1.096-6.39 1.096-1.38 0-2.74-.136-4.08-.405a21.559 21.559 0 0 1-3.855-1.155c-1.229-.5-2.385-1.1-3.465-1.8s-2.04-1.479-2.88-2.34l2.37-3.87c.199-.28.46-.515.78-.705.319-.189.66-.285 1.02-.285.5 0 1.04.205 1.62.615s1.27.865 2.07 1.365c.8.5 1.734.955 2.805 1.364 1.069.41 2.355.615 3.855.615 2.299 0 4.08-.545 5.34-1.635s1.89-2.655 1.89-4.695c0-1.14-.285-2.07-.854-2.79-.57-.72-1.325-1.324-2.266-1.815-.94-.489-2.01-.904-3.21-1.244s-2.42-.71-3.66-1.11-2.46-.88-3.659-1.44c-1.2-.56-2.271-1.29-3.211-2.19-.939-.9-1.694-2.025-2.265-3.375s-.854-3.015-.854-4.995c0-1.58.314-3.12.944-4.62s1.545-2.83 2.745-3.99c1.2-1.16 2.68-2.09 4.44-2.79 1.76-.7 3.779-1.05 6.06-1.05 2.56 0 4.92.4 7.08 1.2 2.16.8 4 1.92 5.521 3.36l-2.01 3.808zm30.601 11.22c-.221.28-.435.5-.645.66s-.516.24-.915.24c-.381 0-.75-.115-1.11-.345s-.79-.49-1.29-.78c-.5-.29-1.095-.55-1.785-.78-.689-.23-1.545-.345-2.564-.345-1.301 0-2.44.235-3.42.705a6.475 6.475 0 0 0-2.445 2.025c-.65.88-1.136 1.945-1.455 3.195-.32 1.25-.48 2.665-.48 4.245 0 1.64.175 3.101.525 4.38.35 1.28.855 2.355 1.515 3.226.66.87 1.46 1.529 2.4 1.979.939.45 2 .675 3.18.675s2.135-.145 2.865-.435c.729-.29 1.345-.609 1.845-.96.5-.35.935-.67 1.306-.96.369-.29.784-.436 1.245-.436.6 0 1.05.23 1.35.69l2.13 2.7c-.82.96-1.71 1.766-2.67 2.415-.96.65-1.955 1.17-2.985 1.56-1.03.391-2.09.665-3.18.825s-2.175.24-3.255.24c-1.9 0-3.69-.355-5.37-1.065-1.68-.709-3.15-1.744-4.41-3.104s-2.255-3.025-2.984-4.995c-.73-1.97-1.096-4.215-1.096-6.735 0-2.26.325-4.354.976-6.285.649-1.93 1.604-3.6 2.864-5.01 1.261-1.41 2.82-2.515 4.681-3.315 1.859-.8 4-1.2 6.42-1.2 2.3 0 4.314.37 6.045 1.11 1.729.74 3.285 1.8 4.665 3.18l-1.953 2.7zm13.859-1.17c.96-1.84 2.1-3.285 3.42-4.335 1.319-1.05 2.88-1.575 4.68-1.575 1.42 0 2.56.311 3.42.93l-.479 5.55c-.101.36-.245.615-.436.765s-.445.225-.765.225c-.3 0-.745-.05-1.335-.15-.591-.1-1.166-.15-1.726-.15-.82 0-1.55.12-2.189.36a5.513 5.513 0 0 0-1.726 1.035c-.51.45-.96.996-1.35 1.635-.39.641-.755 1.37-1.095 2.19v18.96h-7.41v-30.78h4.35c.76 0 1.29.135 1.59.405.301.27.5.755.601 1.455l.45 3.48zm20.22 10.981c.12 1.58.399 2.945.84 4.095.439 1.15 1.02 2.101 1.74 2.851s1.574 1.31 2.564 1.68 2.085.555 3.285.555 2.235-.14 3.104-.42c.87-.279 1.63-.59 2.28-.93.649-.34 1.22-.649 1.71-.93s.965-.421 1.425-.421c.62 0 1.08.23 1.381.69l2.13 2.7c-.82.96-1.74 1.766-2.761 2.415-1.02.65-2.085 1.17-3.194 1.56-1.11.391-2.24.665-3.391.825s-2.265.24-3.345.24c-2.141 0-4.13-.355-5.97-1.065a13.353 13.353 0 0 1-4.8-3.149c-1.36-1.391-2.431-3.11-3.21-5.16-.78-2.05-1.17-4.426-1.17-7.125 0-2.101.34-4.075 1.02-5.926.68-1.85 1.654-3.46 2.925-4.83s2.82-2.455 4.65-3.255c1.83-.8 3.895-1.2 6.194-1.2 1.94 0 3.73.31 5.37.93 1.64.62 3.05 1.525 4.23 2.715 1.18 1.19 2.104 2.65 2.774 4.38.67 1.73 1.006 3.705 1.006 5.925 0 1.121-.12 1.875-.36 2.266-.24.39-.7.585-1.38.585h-19.047zm14.13-4.471c0-.96-.135-1.864-.405-2.715-.27-.85-.675-1.595-1.215-2.235s-1.226-1.145-2.055-1.515c-.831-.37-1.796-.555-2.896-.555-2.141 0-3.825.61-5.055 1.83-1.23 1.22-2.016 2.951-2.355 5.19h13.981zm17.91 4.471c.12 1.58.399 2.945.84 4.095.439 1.15 1.02 2.101 1.74 2.851s1.574 1.31 2.564 1.68 2.085.555 3.285.555 2.235-.14 3.104-.42c.87-.279 1.63-.59 2.28-.93.649-.34 1.22-.649 1.71-.93s.965-.421 1.425-.421c.62 0 1.08.23 1.381.69l2.13 2.7c-.82.96-1.74 1.766-2.761 2.415-1.02.65-2.085 1.17-3.194 1.56-1.11.391-2.24.665-3.391.825s-2.265.24-3.345.24c-2.141 0-4.13-.355-5.97-1.065a13.353 13.353 0 0 1-4.8-3.149c-1.36-1.391-2.431-3.11-3.21-5.16-.78-2.05-1.17-4.426-1.17-7.125 0-2.101.34-4.075 1.02-5.926.68-1.85 1.654-3.46 2.925-4.83s2.82-2.455 4.65-3.255c1.83-.8 3.895-1.2 6.194-1.2 1.94 0 3.73.31 5.37.93 1.64.62 3.05 1.525 4.23 2.715 1.18 1.19 2.104 2.65 2.774 4.38.67 1.73 1.006 3.705 1.006 5.925 0 1.121-.12 1.875-.36 2.266-.24.39-.7.585-1.38.585h-19.047zm14.13-4.471c0-.96-.135-1.864-.405-2.715-.27-.85-.675-1.595-1.215-2.235s-1.226-1.145-2.055-1.515c-.831-.37-1.796-.555-2.896-.555-2.141 0-3.825.61-5.055 1.83-1.23 1.22-2.016 2.951-2.355 5.19h13.981zm19.139-8.07c.62-.62 1.275-1.195 1.965-1.725.69-.53 1.42-.979 2.19-1.35.77-.37 1.595-.66 2.475-.87s1.84-.315 2.88-.315c1.681 0 3.17.285 4.471.855 1.3.57 2.385 1.37 3.255 2.4.87 1.03 1.53 2.26 1.979 3.69.45 1.43.676 3.005.676 4.726v19.59h-7.41v-19.59c0-1.88-.431-3.335-1.29-4.366-.86-1.03-2.171-1.545-3.931-1.545-1.279 0-2.479.29-3.6.87s-2.18 1.37-3.18 2.37v22.26h-7.41v-30.78h4.53c.96 0 1.59.45 1.89 1.35l.51 2.43zm64.02-16.38v43.38h-8.101v-18.96h-20.37v18.96h-8.1v-43.38h8.1v18.66h20.37v-18.66h8.101zm16.771 3.63c0 .64-.131 1.24-.391 1.8a4.916 4.916 0 0 1-1.035 1.47c-.43.42-.935.755-1.515 1.005-.58.25-1.2.375-1.86.375-.64 0-1.244-.125-1.814-.375-.57-.25-1.065-.585-1.485-1.005s-.755-.91-1.005-1.47a4.365 4.365 0 0 1-.375-1.8 4.76 4.76 0 0 1 1.38-3.36c.42-.42.915-.755 1.485-1.005a4.468 4.468 0 0 1 1.814-.375c.66 0 1.28.125 1.86.375.58.25 1.085.585 1.515 1.005.431.42.775.92 1.035 1.5s.391 1.2.391 1.86zm-1.021 8.971v30.78h-7.439v-30.78h7.439zm17.82 31.26c-2.681 0-4.735-.755-6.165-2.266-1.43-1.51-2.145-3.595-2.145-6.255v-17.19h-3.15c-.4 0-.74-.13-1.02-.39s-.421-.649-.421-1.17v-2.94l4.95-.81 1.561-8.4c.1-.4.289-.71.569-.93.28-.22.641-.33 1.08-.33h3.84v9.69h8.221v5.28h-8.221v16.681c0 .96.235 1.71.705 2.25s1.115.81 1.936.81c.46 0 .845-.055 1.155-.165.31-.109.579-.225.81-.345.229-.12.435-.234.615-.345.18-.11.359-.165.54-.165a.85.85 0 0 1 .54.165c.14.11.289.274.449.495l2.221 3.6c-1.08.9-2.32 1.58-3.721 2.04a13.83 13.83 0 0 1-4.349.69zm30.84-25.26c-.2.32-.41.545-.631.675-.22.13-.5.195-.84.195-.359 0-.745-.1-1.154-.3-.41-.2-.886-.425-1.426-.675s-1.154-.475-1.845-.675c-.689-.2-1.505-.3-2.445-.3-1.46 0-2.604.31-3.435.93-.83.62-1.245 1.43-1.245 2.43 0 .661.215 1.215.646 1.666.43.45.999.845 1.71 1.185a16.46 16.46 0 0 0 2.415.915c.899.271 1.814.565 2.744.885.931.32 1.846.686 2.745 1.096.9.41 1.705.93 2.415 1.56s1.28 1.385 1.71 2.266c.43.88.646 1.939.646 3.18 0 1.48-.266 2.846-.795 4.095-.53 1.25-1.315 2.33-2.355 3.24s-2.325 1.62-3.854 2.13c-1.53.51-3.296.766-5.295.766a16.83 16.83 0 0 1-3.105-.285 18.356 18.356 0 0 1-2.91-.795c-.93-.34-1.79-.74-2.58-1.2s-1.484-.96-2.085-1.5l1.71-2.82c.22-.34.48-.6.78-.78.3-.18.68-.27 1.14-.27s.896.13 1.306.39c.409.261.885.54 1.425.84.54.301 1.175.581 1.905.841.729.26 1.654.39 2.774.39.88 0 1.635-.105 2.266-.315.63-.21 1.149-.484 1.56-.824s.71-.735.9-1.186a3.57 3.57 0 0 0 .284-1.395c0-.721-.215-1.31-.645-1.771-.431-.46-1-.859-1.71-1.2-.71-.34-1.521-.645-2.43-.915a76.92 76.92 0 0 1-2.79-.885 25.328 25.328 0 0 1-2.79-1.125c-.91-.43-1.721-.975-2.431-1.635s-1.279-1.471-1.71-2.431c-.43-.96-.645-2.119-.645-3.479 0-1.26.25-2.46.75-3.601a8.44 8.44 0 0 1 2.205-2.985c.97-.85 2.18-1.53 3.63-2.04 1.45-.51 3.125-.765 5.025-.765 2.119 0 4.05.35 5.789 1.05 1.74.7 3.19 1.62 4.351 2.76l-1.68 2.667z" fill="#37474F"/></svg>