<?xml version="1.0" encoding="utf-8"?>
<!-- Generator: Adobe Illustrator 16.0.4, SVG Export Plug-In . SVG Version: 6.00 Build 0)  -->
<!DOCTYPE svg PUBLIC "-//W3C//DTD SVG 1.1//EN" "http://www.w3.org/Graphics/SVG/1.1/DTD/svg11.dtd">
<svg version="1.1" id="Capa_1" xmlns="http://www.w3.org/2000/svg" xmlns:xlink="http://www.w3.org/1999/xlink" x="0px" y="0px"
	 width="200px" height="200px" viewBox="0 0 200 200" enable-background="new 0 0 200 200" xml:space="preserve">
<path fill="#263238" d="M197.955,30.68L169.32,2.045C168.01,0.735,166.234,0,164.382,0s-3.628,0.735-4.938,2.045
	c-9.529,9.532-13.321,22.247-10.758,32.587l-79.732,79.731L54.486,99.896c-1.309-1.309-3.085-2.044-4.937-2.044
	c-1.852,0-3.628,0.736-4.937,2.044l-33.12,33.12C4.082,140.427,0,150.281,0,160.761c0,10.481,4.082,20.335,11.493,27.747
	C18.904,195.918,28.758,200,39.239,200c10.48,0,20.334-4.082,27.746-11.492l33.12-33.119c1.31-1.31,2.046-3.085,2.046-4.938
	s-0.736-3.627-2.046-4.938l-14.467-14.468l79.705-79.705c2.11,0.539,4.332,0.824,6.629,0.824c9.136,0,18.606-4.232,25.984-11.609
	c1.31-1.31,2.045-3.085,2.045-4.938C200,33.766,199.265,31.991,197.955,30.68z M171.971,38.2c-2.152,0-5.192-0.473-7.445-2.726
	c-3.941-3.941-3.508-11.312,0.468-18.006l17.541,17.542C179.09,37.058,175.4,38.2,171.971,38.2z"/>
</svg>
