<?xml version="1.0" encoding="utf-8"?>
<!-- Generator: Adobe Illustrator 16.0.4, SVG Export Plug-In . SVG Version: 6.00 Build 0)  -->
<!DOCTYPE svg PUBLIC "-//W3C//DTD SVG 1.1//EN" "http://www.w3.org/Graphics/SVG/1.1/DTD/svg11.dtd">
<svg version="1.1" id="Layer_1" xmlns="http://www.w3.org/2000/svg" xmlns:xlink="http://www.w3.org/1999/xlink" x="0px" y="0px"
	 width="50px" height="50px" viewBox="0 0 50 50" enable-background="new 0 0 50 50" xml:space="preserve">
<circle fill="#EDEFF2" cx="25" cy="25" r="25"/>
<path fill="#607D8B" d="M28,25c0,1.7-1.3,3-3,3c-1.7,0-3-1.3-3-3s1.3-3,3-3C26.7,22,28,23.3,28,25z"/>
<path fill="#263238" d="M33,30c0,1.7-1.3,3-3,3c-1.7,0-3-1.3-3-3s1.3-3,3-3C31.7,27,33,28.3,33,30z"/>
<path fill="#455A64" d="M23,40c0,1.7-1.3,3-3,3c-1.7,0-3-1.3-3-3s1.3-3,3-3C21.7,37,23,38.3,23,40z"/>
<path fill="#90A4AE" d="M28,35c0,1.7-1.3,3-3,3c-1.7,0-3-1.3-3-3s1.3-3,3-3C26.7,32,28,33.3,28,35z"/>
<path fill="#263238" d="M38,25c0,1.7-1.3,3-3,3c-1.7,0-3-1.3-3-3s1.3-3,3-3C36.7,22,38,23.3,38,25z"/>
<path fill="#90A4AE" d="M43,20c0,1.7-1.3,3-3,3c-1.7,0-3-1.3-3-3s1.3-3,3-3C41.7,17,43,18.3,43,20z"/>
<path fill="#90A4AE" d="M23,20c0,1.7-1.3,3-3,3c-1.7,0-3-1.3-3-3s1.3-3,3-3C21.7,17,23,18.3,23,20z"/>
<path fill="#607D8B" d="M13,30c0,1.7-1.3,3-3,3c-1.7,0-3-1.3-3-3s1.3-3,3-3C11.7,27,13,28.3,13,30z"/>
<path fill="#455A64" d="M18,25c0,1.7-1.3,3-3,3c-1.7,0-3-1.3-3-3s1.3-3,3-3C16.7,22,18,23.3,18,25z"/>
<path fill="#607D8B" d="M33,10c0,1.7-1.3,3-3,3c-1.7,0-3-1.3-3-3s1.3-3,3-3C31.7,7,33,8.3,33,10z"/>
<circle fill="#263238" cx="35.5" cy="7" r="2.5"/>
<circle fill="#455A64" cx="40.5" cy="9" r="2"/>
<path fill="#607D8B" d="M28,15c0,1.7-1.3,3-3,3c-1.7,0-3-1.3-3-3s1.3-3,3-3C26.7,12,28,13.3,28,15z"/>
<circle fill="#263238" cx="43.5" cy="12" r="1.5"/>
<circle fill="#607D8B" cx="45.5" cy="15" r="1.2"/>
<circle fill="#90A4AE" cx="47" cy="17.5" r="1"/>
<circle fill="#90A4AE" cx="14.5" cy="43" r="2.5"/>
<circle fill="#607D8B" cx="9.5" cy="41" r="2"/>
<circle fill="#90A4AE" cx="6.5" cy="38" r="1.5"/>
<circle fill="#455A64" cx="4.5" cy="35" r="1.2"/>
<circle fill="#263238" cx="3" cy="32.5" r="1"/>
</svg>
