<?xml version="1.0" encoding="utf-8"?>
<!-- Generator: Adobe Illustrator 16.0.4, SVG Export Plug-In . SVG Version: 6.00 Build 0)  -->
<!DOCTYPE svg PUBLIC "-//W3C//DTD SVG 1.1//EN" "http://www.w3.org/Graphics/SVG/1.1/DTD/svg11.dtd">
<svg version="1.1" id="Layer_1" xmlns="http://www.w3.org/2000/svg" xmlns:xlink="http://www.w3.org/1999/xlink" x="0px" y="0px"
	 width="374.46px" height="75.898px" viewBox="0 0 374.46 75.898" enable-background="new 0 0 374.46 75.898" xml:space="preserve">
<g>
	<circle fill="#607D8B" cx="37.5" cy="37.5" r="37.5"/>
	<path fill="#F5F5F5" d="M42,37.5c0,2.486-2.012,4.5-4.495,4.5C35.02,42,33,39.986,33,37.5s2.02-4.5,4.505-4.5
		C39.988,33,42,35.014,42,37.5z"/>
	<path fill="#263238" d="M49.5,45c0,2.486-2.012,4.5-4.494,4.5c-2.486,0-4.506-2.014-4.506-4.5s2.02-4.5,4.506-4.5
		C47.488,40.5,49.5,42.514,49.5,45z"/>
	<path fill="#455A64" d="M34.5,60c0,2.486-2.011,4.5-4.495,4.5c-2.485,0-4.505-2.014-4.505-4.5s2.02-4.5,4.505-4.5
		C32.489,55.5,34.5,57.514,34.5,60z"/>
	<path fill="#90A4AE" d="M42,52.5c0,2.486-2.012,4.5-4.495,4.5C35.02,57,33,54.986,33,52.5s2.02-4.5,4.505-4.5
		C39.988,48,42,50.014,42,52.5z"/>
	<path fill="#263238" d="M57,37.5c0,2.486-2.012,4.5-4.494,4.5C50.02,42,48,39.986,48,37.5s2.02-4.5,4.506-4.5
		C54.988,33,57,35.014,57,37.5z"/>
	<path fill="#90A4AE" d="M64.5,30c0,2.485-2.012,4.5-4.494,4.5c-2.486,0-4.506-2.015-4.506-4.5c0-2.486,2.02-4.5,4.506-4.5
		C62.488,25.5,64.5,27.514,64.5,30z"/>
	<path fill="#90A4AE" d="M34.5,30c0,2.485-2.011,4.5-4.495,4.5c-2.485,0-4.505-2.015-4.505-4.5c0-2.486,2.02-4.5,4.505-4.5
		C32.489,25.5,34.5,27.514,34.5,30z"/>
	<path fill="#F5F5F5" d="M19.5,45c0,2.486-2.011,4.5-4.495,4.5c-2.485,0-4.505-2.014-4.505-4.5s2.02-4.5,4.505-4.5
		C17.489,40.5,19.5,42.514,19.5,45z"/>
	<path fill="#455A64" d="M27,37.5c0,2.486-2.011,4.5-4.495,4.5C20.02,42,18,39.986,18,37.5s2.02-4.5,4.505-4.5
		C24.989,33,27,35.014,27,37.5z"/>
	<path fill="#F5F5F5" d="M49.5,15c0,2.485-2.012,4.5-4.494,4.5c-2.486,0-4.506-2.015-4.506-4.5c0-2.486,2.02-4.5,4.506-4.5
		C47.488,10.5,49.5,12.514,49.5,15z"/>
	<path fill="#263238" d="M57,10.5c0,2.071-1.676,3.75-3.746,3.75S49.5,12.571,49.5,10.5s1.684-3.75,3.754-3.75S57,8.429,57,10.5z"/>
	<circle fill="#455A64" cx="60.75" cy="13.5" r="3"/>
	<path fill="#455A64" d="M42,22.5c0,2.485-2.012,4.5-4.495,4.5C35.02,27,33,24.985,33,22.5c0-2.486,2.02-4.5,4.505-4.5
		C39.988,18,42,20.014,42,22.5z"/>
	<circle fill="#263238" cx="65.25" cy="18" r="2.25"/>
	<circle fill="#F5F5F5" cx="68.25" cy="22.5" r="1.875"/>
	<circle fill="#90A4AE" cx="70.5" cy="26.25" r="1.5"/>
	<path fill="#90A4AE" d="M18,64.5c0-2.071,1.676-3.75,3.746-3.75c2.071,0,3.754,1.679,3.754,3.75s-1.683,3.75-3.754,3.75
		C19.676,68.25,18,66.571,18,64.5z"/>
	<path fill="#F5F5F5" d="M11.25,61.5c0-1.656,1.34-3,2.996-3c1.658,0,3.004,1.344,3.004,3s-1.346,3-3.004,3
		C12.59,64.5,11.25,63.156,11.25,61.5z"/>
	<circle fill="#90A4AE" cx="9.75" cy="57" r="2.25"/>
	<circle fill="#455A64" cx="6.75" cy="52.5" r="1.875"/>
	<circle fill="#263238" cx="4.5" cy="48.75" r="1.5"/>
</g>
<text transform="matrix(1 0 0 1 84.1816 58.7979)" fill="#37474F" font-family="'Lato-Bold'" font-size="60">ScreenHits</text>
</svg>
