<?xml version="1.0" encoding="utf-8"?>
<!-- Generator: Adobe Illustrator 16.0.4, SVG Export Plug-In . SVG Version: 6.00 Build 0)  -->
<!DOCTYPE svg PUBLIC "-//W3C//DTD SVG 1.1//EN" "http://www.w3.org/Graphics/SVG/1.1/DTD/svg11.dtd">
<svg version="1.1" id="Layer_1" xmlns="http://www.w3.org/2000/svg" xmlns:xlink="http://www.w3.org/1999/xlink" x="0px" y="0px"
	 width="374.5px" height="75.9px" viewBox="0 0 374.5 75.9" enable-background="new 0 0 374.5 75.9" xml:space="preserve">
<g>
	<circle fill="#607D8B" cx="37.5" cy="37.5" r="37.5"/>
	<path fill="#F5F5F5" d="M42,37.5c0,2.5-2,4.5-4.5,4.5C35,42,33,40,33,37.5s2-4.5,4.5-4.5C40,33,42,35,42,37.5z"/>
	<path fill="#263238" d="M49.5,45c0,2.5-2,4.5-4.5,4.5c-2.5,0-4.5-2-4.5-4.5s2-4.5,4.5-4.5C47.5,40.5,49.5,42.5,49.5,45z"/>
	<path fill="#455A64" d="M34.5,60c0,2.5-2,4.5-4.5,4.5c-2.5,0-4.5-2-4.5-4.5s2-4.5,4.5-4.5C32.5,55.5,34.5,57.5,34.5,60z"/>
	<path fill="#90A4AE" d="M42,52.5c0,2.5-2,4.5-4.5,4.5C35,57,33,55,33,52.5s2-4.5,4.5-4.5C40,48,42,50,42,52.5z"/>
	<path fill="#263238" d="M57,37.5c0,2.5-2,4.5-4.5,4.5C50,42,48,40,48,37.5s2-4.5,4.5-4.5C55,33,57,35,57,37.5z"/>
	<path fill="#90A4AE" d="M64.5,30c0,2.5-2,4.5-4.5,4.5c-2.5,0-4.5-2-4.5-4.5c0-2.5,2-4.5,4.5-4.5C62.5,25.5,64.5,27.5,64.5,30z"/>
	<path fill="#90A4AE" d="M34.5,30c0,2.5-2,4.5-4.5,4.5c-2.5,0-4.5-2-4.5-4.5c0-2.5,2-4.5,4.5-4.5C32.5,25.5,34.5,27.5,34.5,30z"/>
	<path fill="#F5F5F5" d="M19.5,45c0,2.5-2,4.5-4.5,4.5c-2.5,0-4.5-2-4.5-4.5s2-4.5,4.5-4.5C17.5,40.5,19.5,42.5,19.5,45z"/>
	<path fill="#455A64" d="M27,37.5c0,2.5-2,4.5-4.5,4.5C20,42,18,40,18,37.5s2-4.5,4.5-4.5C25,33,27,35,27,37.5z"/>
	<path fill="#F5F5F5" d="M49.5,15c0,2.5-2,4.5-4.5,4.5c-2.5,0-4.5-2-4.5-4.5c0-2.5,2-4.5,4.5-4.5C47.5,10.5,49.5,12.5,49.5,15z"/>
	<path fill="#263238" d="M57,10.5c0,2.1-1.7,3.8-3.7,3.8s-3.8-1.7-3.8-3.8s1.7-3.8,3.8-3.8S57,8.4,57,10.5z"/>
	<circle fill="#455A64" cx="60.8" cy="13.5" r="3"/>
	<path fill="#455A64" d="M42,22.5c0,2.5-2,4.5-4.5,4.5C35,27,33,25,33,22.5c0-2.5,2-4.5,4.5-4.5C40,18,42,20,42,22.5z"/>
	<circle fill="#263238" cx="65.2" cy="18" r="2.2"/>
	<circle fill="#F5F5F5" cx="68.2" cy="22.5" r="1.9"/>
	<circle fill="#90A4AE" cx="70.5" cy="26.2" r="1.5"/>
	<path fill="#90A4AE" d="M18,64.5c0-2.1,1.7-3.8,3.7-3.8c2.1,0,3.8,1.7,3.8,3.8s-1.7,3.8-3.8,3.8C19.7,68.2,18,66.6,18,64.5z"/>
	<path fill="#F5F5F5" d="M11.2,61.5c0-1.7,1.3-3,3-3c1.7,0,3,1.3,3,3s-1.3,3-3,3C12.6,64.5,11.2,63.2,11.2,61.5z"/>
	<circle fill="#90A4AE" cx="9.8" cy="57" r="2.2"/>
	<circle fill="#455A64" cx="6.8" cy="52.5" r="1.9"/>
	<circle fill="#263238" cx="4.5" cy="48.8" r="1.5"/>
</g>
<g>
	<path fill="#37474F" d="M112.1,23.3c-0.2,0.4-0.5,0.7-0.8,0.9c-0.3,0.2-0.6,0.3-1,0.3c-0.4,0-0.9-0.2-1.4-0.5s-1.1-0.7-1.8-1
		c-0.7-0.4-1.5-0.7-2.4-1c-0.9-0.3-2-0.5-3.2-0.5c-1.1,0-2.1,0.1-2.9,0.4c-0.8,0.3-1.5,0.6-2.1,1.1c-0.6,0.5-1,1.1-1.3,1.7
		c-0.3,0.7-0.4,1.4-0.4,2.2c0,1,0.3,1.9,0.9,2.6c0.6,0.7,1.3,1.3,2.3,1.7s2,0.9,3.2,1.3c1.2,0.4,2.4,0.8,3.7,1.2
		c1.3,0.4,2.5,0.9,3.7,1.5c1.2,0.6,2.3,1.3,3.2,2.2c0.9,0.9,1.7,1.9,2.3,3.2c0.6,1.3,0.9,2.8,0.9,4.6c0,2-0.3,3.8-1,5.5
		s-1.6,3.2-2.9,4.5c-1.3,1.3-2.9,2.3-4.7,3c-1.9,0.7-4,1.1-6.4,1.1c-1.4,0-2.7-0.1-4.1-0.4c-1.3-0.3-2.6-0.7-3.9-1.2
		c-1.2-0.5-2.4-1.1-3.5-1.8s-2-1.5-2.9-2.3l2.4-3.9c0.2-0.3,0.5-0.5,0.8-0.7c0.3-0.2,0.7-0.3,1-0.3c0.5,0,1,0.2,1.6,0.6
		s1.3,0.9,2.1,1.4c0.8,0.5,1.7,1,2.8,1.4c1.1,0.4,2.4,0.6,3.9,0.6c2.3,0,4.1-0.5,5.3-1.6s1.9-2.7,1.9-4.7c0-1.1-0.3-2.1-0.9-2.8
		c-0.6-0.7-1.3-1.3-2.3-1.8c-0.9-0.5-2-0.9-3.2-1.2s-2.4-0.7-3.7-1.1s-2.5-0.9-3.7-1.4c-1.2-0.6-2.3-1.3-3.2-2.2
		c-0.9-0.9-1.7-2-2.3-3.4s-0.9-3-0.9-5c0-1.6,0.3-3.1,0.9-4.6s1.5-2.8,2.7-4c1.2-1.2,2.7-2.1,4.4-2.8c1.8-0.7,3.8-1,6.1-1
		c2.6,0,4.9,0.4,7.1,1.2c2.2,0.8,4,1.9,5.5,3.4L112.1,23.3z"/>
	<path fill="#37474F" d="M142.7,34.5c-0.2,0.3-0.4,0.5-0.6,0.7s-0.5,0.2-0.9,0.2c-0.4,0-0.8-0.1-1.1-0.3s-0.8-0.5-1.3-0.8
		c-0.5-0.3-1.1-0.5-1.8-0.8c-0.7-0.2-1.5-0.3-2.6-0.3c-1.3,0-2.4,0.2-3.4,0.7c-1,0.5-1.8,1.1-2.4,2c-0.7,0.9-1.1,1.9-1.5,3.2
		c-0.3,1.2-0.5,2.7-0.5,4.2c0,1.6,0.2,3.1,0.5,4.4c0.3,1.3,0.9,2.4,1.5,3.2c0.7,0.9,1.5,1.5,2.4,2c0.9,0.5,2,0.7,3.2,0.7
		s2.1-0.1,2.9-0.4c0.7-0.3,1.3-0.6,1.8-1c0.5-0.3,0.9-0.7,1.3-1c0.4-0.3,0.8-0.4,1.2-0.4c0.6,0,1,0.2,1.3,0.7l2.1,2.7
		c-0.8,1-1.7,1.8-2.7,2.4c-1,0.7-2,1.2-3,1.6c-1,0.4-2.1,0.7-3.2,0.8s-2.2,0.2-3.3,0.2c-1.9,0-3.7-0.4-5.4-1.1
		c-1.7-0.7-3.2-1.7-4.4-3.1s-2.3-3-3-5c-0.7-2-1.1-4.2-1.1-6.7c0-2.3,0.3-4.4,1-6.3c0.6-1.9,1.6-3.6,2.9-5c1.3-1.4,2.8-2.5,4.7-3.3
		c1.9-0.8,4-1.2,6.4-1.2c2.3,0,4.3,0.4,6,1.1c1.7,0.7,3.3,1.8,4.7,3.2L142.7,34.5z"/>
	<path fill="#37474F" d="M156.6,33.4c1-1.8,2.1-3.3,3.4-4.3c1.3-1.1,2.9-1.6,4.7-1.6c1.4,0,2.6,0.3,3.4,0.9l-0.5,5.5
		c-0.1,0.4-0.2,0.6-0.4,0.8s-0.4,0.2-0.8,0.2c-0.3,0-0.7,0-1.3-0.1c-0.6-0.1-1.2-0.2-1.7-0.2c-0.8,0-1.5,0.1-2.2,0.4
		c-0.6,0.2-1.2,0.6-1.7,1c-0.5,0.5-1,1-1.3,1.6c-0.4,0.6-0.8,1.4-1.1,2.2v19h-7.4V28h4.3c0.8,0,1.3,0.1,1.6,0.4
		c0.3,0.3,0.5,0.8,0.6,1.5L156.6,33.4z"/>
	<path fill="#37474F" d="M176.8,44.3c0.1,1.6,0.4,2.9,0.8,4.1c0.4,1.2,1,2.1,1.7,2.9c0.7,0.8,1.6,1.3,2.6,1.7s2.1,0.6,3.3,0.6
		s2.2-0.1,3.1-0.4c0.9-0.3,1.6-0.6,2.3-0.9c0.6-0.3,1.2-0.6,1.7-0.9s1-0.4,1.4-0.4c0.6,0,1.1,0.2,1.4,0.7l2.1,2.7
		c-0.8,1-1.7,1.8-2.8,2.4c-1,0.7-2.1,1.2-3.2,1.6c-1.1,0.4-2.2,0.7-3.4,0.8s-2.3,0.2-3.3,0.2c-2.1,0-4.1-0.4-6-1.1
		c-1.8-0.7-3.4-1.8-4.8-3.1c-1.4-1.4-2.4-3.1-3.2-5.2c-0.8-2-1.2-4.4-1.2-7.1c0-2.1,0.3-4.1,1-5.9c0.7-1.8,1.7-3.5,2.9-4.8
		c1.3-1.4,2.8-2.5,4.7-3.3c1.8-0.8,3.9-1.2,6.2-1.2c1.9,0,3.7,0.3,5.4,0.9c1.6,0.6,3,1.5,4.2,2.7c1.2,1.2,2.1,2.7,2.8,4.4
		c0.7,1.7,1,3.7,1,5.9c0,1.1-0.1,1.9-0.4,2.3c-0.2,0.4-0.7,0.6-1.4,0.6H176.8z M190.9,39.9c0-1-0.1-1.9-0.4-2.7
		c-0.3-0.8-0.7-1.6-1.2-2.2s-1.2-1.1-2.1-1.5c-0.8-0.4-1.8-0.6-2.9-0.6c-2.1,0-3.8,0.6-5.1,1.8c-1.2,1.2-2,3-2.4,5.2H190.9z"/>
	<path fill="#37474F" d="M208.8,44.3c0.1,1.6,0.4,2.9,0.8,4.1c0.4,1.2,1,2.1,1.7,2.9c0.7,0.8,1.6,1.3,2.6,1.7s2.1,0.6,3.3,0.6
		s2.2-0.1,3.1-0.4c0.9-0.3,1.6-0.6,2.3-0.9c0.6-0.3,1.2-0.6,1.7-0.9s1-0.4,1.4-0.4c0.6,0,1.1,0.2,1.4,0.7l2.1,2.7
		c-0.8,1-1.7,1.8-2.8,2.4c-1,0.7-2.1,1.2-3.2,1.6c-1.1,0.4-2.2,0.7-3.4,0.8s-2.3,0.2-3.3,0.2c-2.1,0-4.1-0.4-6-1.1
		c-1.8-0.7-3.4-1.8-4.8-3.1c-1.4-1.4-2.4-3.1-3.2-5.2c-0.8-2-1.2-4.4-1.2-7.1c0-2.1,0.3-4.1,1-5.9c0.7-1.8,1.7-3.5,2.9-4.8
		c1.3-1.4,2.8-2.5,4.7-3.3c1.8-0.8,3.9-1.2,6.2-1.2c1.9,0,3.7,0.3,5.4,0.9c1.6,0.6,3,1.5,4.2,2.7c1.2,1.2,2.1,2.7,2.8,4.4
		c0.7,1.7,1,3.7,1,5.9c0,1.1-0.1,1.9-0.4,2.3c-0.2,0.4-0.7,0.6-1.4,0.6H208.8z M223,39.9c0-1-0.1-1.9-0.4-2.7
		c-0.3-0.8-0.7-1.6-1.2-2.2s-1.2-1.1-2.1-1.5c-0.8-0.4-1.8-0.6-2.9-0.6c-2.1,0-3.8,0.6-5.1,1.8c-1.2,1.2-2,3-2.4,5.2H223z"/>
	<path fill="#37474F" d="M242.1,31.8c0.6-0.6,1.3-1.2,2-1.7c0.7-0.5,1.4-1,2.2-1.4c0.8-0.4,1.6-0.7,2.5-0.9s1.8-0.3,2.9-0.3
		c1.7,0,3.2,0.3,4.5,0.9c1.3,0.6,2.4,1.4,3.3,2.4c0.9,1,1.5,2.3,2,3.7c0.5,1.4,0.7,3,0.7,4.7v19.6h-7.4V39.2c0-1.9-0.4-3.3-1.3-4.4
		c-0.9-1-2.2-1.5-3.9-1.5c-1.3,0-2.5,0.3-3.6,0.9s-2.2,1.4-3.2,2.4v22.3h-7.4V28h4.5c1,0,1.6,0.4,1.9,1.3L242.1,31.8z"/>
	<path fill="#37474F" d="M306.1,15.4v43.4H298v-19h-20.4v19h-8.1V15.4h8.1v18.7H298V15.4H306.1z"/>
	<path fill="#37474F" d="M322.9,19c0,0.6-0.1,1.2-0.4,1.8c-0.3,0.6-0.6,1.1-1,1.5c-0.4,0.4-0.9,0.8-1.5,1c-0.6,0.3-1.2,0.4-1.9,0.4
		c-0.6,0-1.2-0.1-1.8-0.4c-0.6-0.2-1.1-0.6-1.5-1s-0.8-0.9-1-1.5c-0.2-0.6-0.4-1.2-0.4-1.8c0-0.7,0.1-1.3,0.4-1.9s0.6-1.1,1-1.5
		s0.9-0.8,1.5-1c0.6-0.2,1.2-0.4,1.8-0.4c0.7,0,1.3,0.1,1.9,0.4c0.6,0.3,1.1,0.6,1.5,1c0.4,0.4,0.8,0.9,1,1.5S322.9,18.4,322.9,19z
		 M321.9,28v30.8h-7.4V28H321.9z"/>
	<path fill="#37474F" d="M339.7,59.3c-2.7,0-4.7-0.8-6.2-2.3c-1.4-1.5-2.1-3.6-2.1-6.3V33.6h-3.2c-0.4,0-0.7-0.1-1-0.4
		c-0.3-0.3-0.4-0.6-0.4-1.2v-2.9l5-0.8l1.6-8.4c0.1-0.4,0.3-0.7,0.6-0.9c0.3-0.2,0.6-0.3,1.1-0.3h3.8v9.7h8.2v5.3h-8.2v16.7
		c0,1,0.2,1.7,0.7,2.2s1.1,0.8,1.9,0.8c0.5,0,0.8-0.1,1.2-0.2c0.3-0.1,0.6-0.2,0.8-0.3c0.2-0.1,0.4-0.2,0.6-0.3
		c0.2-0.1,0.4-0.2,0.5-0.2c0.2,0,0.4,0.1,0.5,0.2c0.1,0.1,0.3,0.3,0.4,0.5l2.2,3.6c-1.1,0.9-2.3,1.6-3.7,2
		C342.6,59,341.2,59.3,339.7,59.3z"/>
	<path fill="#37474F" d="M370.5,34c-0.2,0.3-0.4,0.5-0.6,0.7c-0.2,0.1-0.5,0.2-0.8,0.2c-0.4,0-0.7-0.1-1.2-0.3
		c-0.4-0.2-0.9-0.4-1.4-0.7s-1.2-0.5-1.8-0.7c-0.7-0.2-1.5-0.3-2.4-0.3c-1.5,0-2.6,0.3-3.4,0.9c-0.8,0.6-1.2,1.4-1.2,2.4
		c0,0.7,0.2,1.2,0.6,1.7c0.4,0.5,1,0.8,1.7,1.2c0.7,0.3,1.5,0.6,2.4,0.9c0.9,0.3,1.8,0.6,2.7,0.9c0.9,0.3,1.8,0.7,2.7,1.1
		c0.9,0.4,1.7,0.9,2.4,1.6s1.3,1.4,1.7,2.3c0.4,0.9,0.6,1.9,0.6,3.2c0,1.5-0.3,2.8-0.8,4.1c-0.5,1.2-1.3,2.3-2.4,3.2
		s-2.3,1.6-3.9,2.1c-1.5,0.5-3.3,0.8-5.3,0.8c-1.1,0-2.1-0.1-3.1-0.3c-1-0.2-2-0.5-2.9-0.8c-0.9-0.3-1.8-0.7-2.6-1.2s-1.5-1-2.1-1.5
		l1.7-2.8c0.2-0.3,0.5-0.6,0.8-0.8c0.3-0.2,0.7-0.3,1.1-0.3s0.9,0.1,1.3,0.4c0.4,0.3,0.9,0.5,1.4,0.8c0.5,0.3,1.2,0.6,1.9,0.8
		c0.7,0.3,1.7,0.4,2.8,0.4c0.9,0,1.6-0.1,2.3-0.3c0.6-0.2,1.1-0.5,1.6-0.8s0.7-0.7,0.9-1.2c0.2-0.5,0.3-0.9,0.3-1.4
		c0-0.7-0.2-1.3-0.6-1.8c-0.4-0.5-1-0.9-1.7-1.2c-0.7-0.3-1.5-0.6-2.4-0.9c-0.9-0.3-1.8-0.6-2.8-0.9c-1-0.3-1.9-0.7-2.8-1.1
		c-0.9-0.4-1.7-1-2.4-1.6s-1.3-1.5-1.7-2.4c-0.4-1-0.6-2.1-0.6-3.5c0-1.3,0.2-2.5,0.8-3.6c0.5-1.1,1.2-2.1,2.2-3
		c1-0.8,2.2-1.5,3.6-2c1.5-0.5,3.1-0.8,5-0.8c2.1,0,4,0.4,5.8,1c1.7,0.7,3.2,1.6,4.4,2.8L370.5,34z"/>
</g>
</svg>
