<?xml version="1.0" encoding="utf-8"?>
<!-- Generator: Adobe Illustrator 16.0.4, SVG Export Plug-In . SVG Version: 6.00 Build 0)  -->
<!DOCTYPE svg PUBLIC "-//W3C//DTD SVG 1.1//EN" "http://www.w3.org/Graphics/SVG/1.1/DTD/svg11.dtd">
<svg version="1.1" id="Layer_1" xmlns="http://www.w3.org/2000/svg" xmlns:xlink="http://www.w3.org/1999/xlink" x="0px" y="0px"
	 width="374.46px" height="75.898px" viewBox="0 0 374.46 75.898" enable-background="new 0 0 374.46 75.898" xml:space="preserve">
<g>
	<circle fill="#607D8B" cx="37.5" cy="37.5" r="37.5"/>
	<path fill="#F5F5F5" d="M42,37.5c0,2.486-2.012,4.5-4.495,4.5C35.02,42,33,39.986,33,37.5s2.02-4.5,4.505-4.5
		C39.988,33,42,35.014,42,37.5z"/>
	<path fill="#263238" d="M49.5,45c0,2.486-2.012,4.5-4.494,4.5c-2.486,0-4.506-2.014-4.506-4.5s2.02-4.5,4.506-4.5
		C47.488,40.5,49.5,42.514,49.5,45z"/>
	<path fill="#455A64" d="M34.5,60c0,2.486-2.011,4.5-4.495,4.5c-2.485,0-4.505-2.014-4.505-4.5s2.02-4.5,4.505-4.5
		C32.489,55.5,34.5,57.514,34.5,60z"/>
	<path fill="#90A4AE" d="M42,52.5c0,2.486-2.012,4.5-4.495,4.5C35.02,57,33,54.986,33,52.5s2.02-4.5,4.505-4.5
		C39.988,48,42,50.014,42,52.5z"/>
	<path fill="#263238" d="M57,37.5c0,2.486-2.012,4.5-4.494,4.5C50.02,42,48,39.986,48,37.5s2.02-4.5,4.506-4.5
		C54.988,33,57,35.014,57,37.5z"/>
	<path fill="#90A4AE" d="M64.5,30c0,2.485-2.012,4.5-4.494,4.5c-2.486,0-4.506-2.015-4.506-4.5c0-2.486,2.02-4.5,4.506-4.5
		C62.488,25.5,64.5,27.514,64.5,30z"/>
	<path fill="#90A4AE" d="M34.5,30c0,2.485-2.011,4.5-4.495,4.5c-2.485,0-4.505-2.015-4.505-4.5c0-2.486,2.02-4.5,4.505-4.5
		C32.489,25.5,34.5,27.514,34.5,30z"/>
	<path fill="#F5F5F5" d="M19.5,45c0,2.486-2.011,4.5-4.495,4.5c-2.485,0-4.505-2.014-4.505-4.5s2.02-4.5,4.505-4.5
		C17.489,40.5,19.5,42.514,19.5,45z"/>
	<path fill="#455A64" d="M27,37.5c0,2.486-2.011,4.5-4.495,4.5C20.02,42,18,39.986,18,37.5s2.02-4.5,4.505-4.5
		C24.989,33,27,35.014,27,37.5z"/>
	<path fill="#F5F5F5" d="M49.5,15c0,2.485-2.012,4.5-4.494,4.5c-2.486,0-4.506-2.015-4.506-4.5c0-2.486,2.02-4.5,4.506-4.5
		C47.488,10.5,49.5,12.514,49.5,15z"/>
	<path fill="#263238" d="M57,10.5c0,2.071-1.676,3.75-3.746,3.75S49.5,12.571,49.5,10.5s1.684-3.75,3.754-3.75S57,8.429,57,10.5z"/>
	<circle fill="#455A64" cx="60.75" cy="13.5" r="3"/>
	<path fill="#455A64" d="M42,22.5c0,2.485-2.012,4.5-4.495,4.5C35.02,27,33,24.985,33,22.5c0-2.486,2.02-4.5,4.505-4.5
		C39.988,18,42,20.014,42,22.5z"/>
	<circle fill="#263238" cx="65.25" cy="18" r="2.25"/>
	<circle fill="#F5F5F5" cx="68.25" cy="22.5" r="1.875"/>
	<circle fill="#90A4AE" cx="70.5" cy="26.25" r="1.5"/>
	<path fill="#90A4AE" d="M18,64.5c0-2.071,1.676-3.75,3.746-3.75c2.071,0,3.754,1.679,3.754,3.75s-1.683,3.75-3.754,3.75
		C19.676,68.25,18,66.571,18,64.5z"/>
	<path fill="#F5F5F5" d="M11.25,61.5c0-1.656,1.34-3,2.996-3c1.658,0,3.004,1.344,3.004,3s-1.346,3-3.004,3
		C12.59,64.5,11.25,63.156,11.25,61.5z"/>
	<circle fill="#90A4AE" cx="9.75" cy="57" r="2.25"/>
	<circle fill="#455A64" cx="6.75" cy="52.5" r="1.875"/>
	<circle fill="#263238" cx="4.5" cy="48.75" r="1.5"/>
</g>
<g>
	<path fill="#37474F" d="M112.111,23.307c-0.239,0.42-0.495,0.726-0.765,0.915c-0.271,0.19-0.605,0.285-1.005,0.285
		c-0.42,0-0.875-0.155-1.365-0.465s-1.075-0.655-1.755-1.035c-0.681-0.38-1.476-0.725-2.385-1.035
		c-0.91-0.31-1.985-0.465-3.226-0.465c-1.12,0-2.1,0.135-2.939,0.405c-0.84,0.27-1.545,0.645-2.115,1.125
		c-0.57,0.48-0.995,1.055-1.275,1.725c-0.28,0.67-0.42,1.405-0.42,2.205c0,1.02,0.285,1.871,0.855,2.55
		c0.57,0.68,1.324,1.26,2.265,1.74s2.01,0.91,3.21,1.29c1.2,0.38,2.431,0.785,3.69,1.215c1.26,0.431,2.49,0.93,3.689,1.5
		c1.2,0.57,2.271,1.29,3.21,2.161c0.94,0.87,1.695,1.935,2.266,3.194c0.569,1.261,0.854,2.79,0.854,4.591
		c0,1.96-0.335,3.795-1.005,5.505s-1.649,3.2-2.939,4.47c-1.29,1.271-2.865,2.271-4.726,3c-1.859,0.73-3.99,1.096-6.39,1.096
		c-1.38,0-2.74-0.136-4.08-0.405c-1.34-0.271-2.625-0.655-3.855-1.155c-1.229-0.5-2.385-1.1-3.465-1.8s-2.04-1.479-2.88-2.34
		l2.37-3.87c0.199-0.28,0.46-0.515,0.78-0.705c0.319-0.189,0.66-0.285,1.02-0.285c0.5,0,1.04,0.205,1.62,0.615
		s1.27,0.865,2.07,1.365c0.8,0.5,1.734,0.955,2.805,1.364c1.069,0.41,2.355,0.615,3.855,0.615c2.299,0,4.08-0.545,5.34-1.635
		s1.89-2.655,1.89-4.695c0-1.14-0.285-2.07-0.854-2.79c-0.57-0.72-1.325-1.324-2.266-1.815c-0.94-0.489-2.01-0.904-3.21-1.244
		s-2.42-0.71-3.66-1.11s-2.46-0.88-3.659-1.44c-1.2-0.56-2.271-1.29-3.211-2.19c-0.939-0.9-1.694-2.025-2.265-3.375
		s-0.854-3.015-0.854-4.995c0-1.58,0.314-3.12,0.944-4.62s1.545-2.83,2.745-3.99c1.2-1.16,2.68-2.09,4.44-2.79
		c1.76-0.7,3.779-1.05,6.06-1.05c2.56,0,4.92,0.4,7.08,1.2c2.16,0.8,4,1.92,5.521,3.36L112.111,23.307z"/>
	<path fill="#37474F" d="M142.712,34.527c-0.221,0.28-0.435,0.5-0.645,0.66s-0.516,0.24-0.915,0.24c-0.381,0-0.75-0.115-1.11-0.345
		s-0.79-0.49-1.29-0.78c-0.5-0.29-1.095-0.55-1.785-0.78c-0.689-0.23-1.545-0.345-2.564-0.345c-1.301,0-2.44,0.235-3.42,0.705
		c-0.98,0.47-1.796,1.145-2.445,2.025c-0.65,0.88-1.136,1.945-1.455,3.195c-0.32,1.25-0.48,2.665-0.48,4.245
		c0,1.64,0.175,3.101,0.525,4.38c0.35,1.28,0.855,2.355,1.515,3.226c0.66,0.87,1.46,1.529,2.4,1.979c0.939,0.45,2,0.675,3.18,0.675
		s2.135-0.145,2.865-0.435c0.729-0.29,1.345-0.609,1.845-0.96c0.5-0.35,0.935-0.67,1.306-0.96c0.369-0.29,0.784-0.436,1.245-0.436
		c0.6,0,1.05,0.23,1.35,0.69l2.13,2.7c-0.82,0.96-1.71,1.766-2.67,2.415c-0.96,0.65-1.955,1.17-2.985,1.56
		c-1.03,0.391-2.09,0.665-3.18,0.825s-2.175,0.24-3.255,0.24c-1.9,0-3.69-0.355-5.37-1.065c-1.68-0.709-3.15-1.744-4.41-3.104
		s-2.255-3.025-2.984-4.995c-0.73-1.97-1.096-4.215-1.096-6.735c0-2.26,0.325-4.354,0.976-6.285c0.649-1.93,1.604-3.6,2.864-5.01
		c1.261-1.41,2.82-2.515,4.681-3.315c1.859-0.8,4-1.2,6.42-1.2c2.3,0,4.314,0.37,6.045,1.11c1.729,0.74,3.285,1.8,4.665,3.18
		L142.712,34.527z"/>
	<path fill="#37474F" d="M156.571,33.357c0.96-1.84,2.1-3.285,3.42-4.335c1.319-1.05,2.88-1.575,4.68-1.575
		c1.42,0,2.56,0.311,3.42,0.93l-0.479,5.55c-0.101,0.36-0.245,0.615-0.436,0.765s-0.445,0.225-0.765,0.225
		c-0.3,0-0.745-0.05-1.335-0.15c-0.591-0.1-1.166-0.15-1.726-0.15c-0.82,0-1.55,0.12-2.189,0.36
		c-0.641,0.24-1.215,0.585-1.726,1.035c-0.51,0.45-0.96,0.996-1.35,1.635c-0.39,0.641-0.755,1.37-1.095,2.19v18.96h-7.41v-30.78
		h4.35c0.76,0,1.29,0.135,1.59,0.405c0.301,0.27,0.5,0.755,0.601,1.455L156.571,33.357z"/>
	<path fill="#37474F" d="M176.791,44.338c0.12,1.58,0.399,2.945,0.84,4.095c0.439,1.15,1.02,2.101,1.74,2.851
		c0.72,0.75,1.574,1.31,2.564,1.68s2.085,0.555,3.285,0.555s2.235-0.14,3.104-0.42c0.87-0.279,1.63-0.59,2.28-0.93
		c0.649-0.34,1.22-0.649,1.71-0.93s0.965-0.421,1.425-0.421c0.62,0,1.08,0.23,1.381,0.69l2.13,2.7
		c-0.82,0.96-1.74,1.766-2.761,2.415c-1.02,0.65-2.085,1.17-3.194,1.56c-1.11,0.391-2.24,0.665-3.391,0.825s-2.265,0.24-3.345,0.24
		c-2.141,0-4.13-0.355-5.97-1.065c-1.841-0.709-3.44-1.76-4.8-3.149c-1.36-1.391-2.431-3.11-3.21-5.16
		c-0.78-2.05-1.17-4.426-1.17-7.125c0-2.101,0.34-4.075,1.02-5.926c0.68-1.85,1.654-3.46,2.925-4.83
		c1.271-1.37,2.82-2.455,4.65-3.255c1.83-0.8,3.895-1.2,6.194-1.2c1.94,0,3.73,0.31,5.37,0.93c1.64,0.62,3.05,1.525,4.23,2.715
		c1.18,1.19,2.104,2.65,2.774,4.38c0.67,1.73,1.006,3.705,1.006,5.925c0,1.121-0.12,1.875-0.36,2.266
		c-0.24,0.39-0.7,0.585-1.38,0.585H176.791z M190.921,39.867c0-0.96-0.135-1.864-0.405-2.715c-0.27-0.85-0.675-1.595-1.215-2.235
		s-1.226-1.145-2.055-1.515c-0.831-0.37-1.796-0.555-2.896-0.555c-2.141,0-3.825,0.61-5.055,1.83c-1.23,1.22-2.016,2.951-2.355,5.19
		H190.921z"/>
	<path fill="#37474F" d="M208.831,44.338c0.12,1.58,0.399,2.945,0.84,4.095c0.439,1.15,1.02,2.101,1.74,2.851
		c0.72,0.75,1.574,1.31,2.564,1.68s2.085,0.555,3.285,0.555s2.235-0.14,3.104-0.42c0.87-0.279,1.63-0.59,2.28-0.93
		c0.649-0.34,1.22-0.649,1.71-0.93s0.965-0.421,1.425-0.421c0.62,0,1.08,0.23,1.381,0.69l2.13,2.7
		c-0.82,0.96-1.74,1.766-2.761,2.415c-1.02,0.65-2.085,1.17-3.194,1.56c-1.11,0.391-2.24,0.665-3.391,0.825s-2.265,0.24-3.345,0.24
		c-2.141,0-4.13-0.355-5.97-1.065c-1.841-0.709-3.44-1.76-4.8-3.149c-1.36-1.391-2.431-3.11-3.21-5.16
		c-0.78-2.05-1.17-4.426-1.17-7.125c0-2.101,0.34-4.075,1.02-5.926c0.68-1.85,1.654-3.46,2.925-4.83
		c1.271-1.37,2.82-2.455,4.65-3.255c1.83-0.8,3.895-1.2,6.194-1.2c1.94,0,3.73,0.31,5.37,0.93c1.64,0.62,3.05,1.525,4.23,2.715
		c1.18,1.19,2.104,2.65,2.774,4.38c0.67,1.73,1.006,3.705,1.006,5.925c0,1.121-0.12,1.875-0.36,2.266
		c-0.24,0.39-0.7,0.585-1.38,0.585H208.831z M222.961,39.867c0-0.96-0.135-1.864-0.405-2.715c-0.27-0.85-0.675-1.595-1.215-2.235
		s-1.226-1.145-2.055-1.515c-0.831-0.37-1.796-0.555-2.896-0.555c-2.141,0-3.825,0.61-5.055,1.83c-1.23,1.22-2.016,2.951-2.355,5.19
		H222.961z"/>
	<path fill="#37474F" d="M242.1,31.797c0.62-0.62,1.275-1.195,1.965-1.725c0.69-0.53,1.42-0.979,2.19-1.35
		c0.77-0.37,1.595-0.66,2.475-0.87s1.84-0.315,2.88-0.315c1.681,0,3.17,0.285,4.471,0.855c1.3,0.57,2.385,1.37,3.255,2.4
		c0.87,1.03,1.53,2.26,1.979,3.69c0.45,1.43,0.676,3.005,0.676,4.726v19.59h-7.41v-19.59c0-1.88-0.431-3.335-1.29-4.366
		c-0.86-1.03-2.171-1.545-3.931-1.545c-1.279,0-2.479,0.29-3.6,0.87s-2.18,1.37-3.18,2.37v22.26h-7.41v-30.78h4.53
		c0.96,0,1.59,0.45,1.89,1.35L242.1,31.797z"/>
	<path fill="#37474F" d="M306.12,15.417v43.38h-8.101v-18.96h-20.37v18.96h-8.1v-43.38h8.1v18.66h20.37v-18.66H306.12z"/>
	<path fill="#37474F" d="M322.891,19.047c0,0.64-0.131,1.24-0.391,1.8c-0.26,0.561-0.604,1.05-1.035,1.47
		c-0.43,0.42-0.935,0.755-1.515,1.005c-0.58,0.25-1.2,0.375-1.86,0.375c-0.64,0-1.244-0.125-1.814-0.375
		c-0.57-0.25-1.065-0.585-1.485-1.005s-0.755-0.91-1.005-1.47c-0.25-0.56-0.375-1.16-0.375-1.8c0-0.66,0.125-1.28,0.375-1.86
		s0.585-1.08,1.005-1.5s0.915-0.755,1.485-1.005c0.57-0.25,1.175-0.375,1.814-0.375c0.66,0,1.28,0.125,1.86,0.375
		c0.58,0.25,1.085,0.585,1.515,1.005c0.431,0.42,0.775,0.92,1.035,1.5S322.891,18.387,322.891,19.047z M321.87,28.018v30.78h-7.439
		v-30.78H321.87z"/>
	<path fill="#37474F" d="M339.69,59.278c-2.681,0-4.735-0.755-6.165-2.266c-1.43-1.51-2.145-3.595-2.145-6.255v-17.19h-3.15
		c-0.4,0-0.74-0.13-1.02-0.39c-0.28-0.26-0.421-0.649-0.421-1.17v-2.94l4.95-0.81l1.561-8.4c0.1-0.4,0.289-0.71,0.569-0.93
		c0.28-0.22,0.641-0.33,1.08-0.33h3.84v9.69h8.221v5.28h-8.221v16.681c0,0.96,0.235,1.71,0.705,2.25s1.115,0.81,1.936,0.81
		c0.46,0,0.845-0.055,1.155-0.165c0.31-0.109,0.579-0.225,0.81-0.345c0.229-0.12,0.435-0.234,0.615-0.345
		c0.18-0.11,0.359-0.165,0.54-0.165c0.22,0,0.399,0.055,0.54,0.165c0.14,0.11,0.289,0.274,0.449,0.495l2.221,3.6
		c-1.08,0.9-2.32,1.58-3.721,2.04C342.641,59.048,341.19,59.278,339.69,59.278z"/>
	<path fill="#37474F" d="M370.53,34.018c-0.2,0.32-0.41,0.545-0.631,0.675c-0.22,0.13-0.5,0.195-0.84,0.195
		c-0.359,0-0.745-0.1-1.154-0.3c-0.41-0.2-0.886-0.425-1.426-0.675s-1.154-0.475-1.845-0.675c-0.689-0.2-1.505-0.3-2.445-0.3
		c-1.46,0-2.604,0.31-3.435,0.93c-0.83,0.62-1.245,1.43-1.245,2.43c0,0.661,0.215,1.215,0.646,1.666
		c0.43,0.45,0.999,0.845,1.71,1.185c0.709,0.341,1.515,0.646,2.415,0.915c0.899,0.271,1.814,0.565,2.744,0.885
		c0.931,0.32,1.846,0.686,2.745,1.096c0.9,0.41,1.705,0.93,2.415,1.56s1.28,1.385,1.71,2.266c0.43,0.88,0.646,1.939,0.646,3.18
		c0,1.48-0.266,2.846-0.795,4.095c-0.53,1.25-1.315,2.33-2.355,3.24s-2.325,1.62-3.854,2.13c-1.53,0.51-3.296,0.766-5.295,0.766
		c-1.061,0-2.096-0.096-3.105-0.285c-1.01-0.19-1.979-0.455-2.91-0.795c-0.93-0.34-1.79-0.74-2.58-1.2s-1.484-0.96-2.085-1.5
		l1.71-2.82c0.22-0.34,0.48-0.6,0.78-0.78c0.3-0.18,0.68-0.27,1.14-0.27s0.896,0.13,1.306,0.39c0.409,0.261,0.885,0.54,1.425,0.84
		c0.54,0.301,1.175,0.581,1.905,0.841c0.729,0.26,1.654,0.39,2.774,0.39c0.88,0,1.635-0.105,2.266-0.315
		c0.63-0.21,1.149-0.484,1.56-0.824s0.71-0.735,0.9-1.186c0.189-0.45,0.284-0.915,0.284-1.395c0-0.721-0.215-1.31-0.645-1.771
		c-0.431-0.46-1-0.859-1.71-1.2c-0.71-0.34-1.521-0.645-2.43-0.915c-0.911-0.27-1.841-0.564-2.79-0.885
		c-0.95-0.319-1.881-0.694-2.79-1.125c-0.91-0.43-1.721-0.975-2.431-1.635s-1.279-1.471-1.71-2.431
		c-0.43-0.96-0.645-2.119-0.645-3.479c0-1.26,0.25-2.46,0.75-3.601c0.5-1.14,1.234-2.134,2.205-2.985c0.97-0.85,2.18-1.53,3.63-2.04
		c1.45-0.51,3.125-0.765,5.025-0.765c2.119,0,4.05,0.35,5.789,1.05c1.74,0.7,3.19,1.62,4.351,2.76L370.53,34.018z"/>
</g>
</svg>
